<svg id="Layer_5" data-name="Layer 5" xmlns="http://www.w3.org/2000/svg" version="1.1" viewBox="0 0 25 28">
  <defs>
    <style>
      .cls-1 {
        fill: #000;
        stroke-width: 0px;
      }

      .cls-2 {
        stroke-width: 1.1px;
      }

      .cls-2, .cls-3 {
        fill: none;
        stroke: #000;
        stroke-miterlimit: 10;
      }

      .cls-3 {
        stroke-width: 15px;
      }
    </style>
  </defs>
  <g>
    <path class="cls-3" d="M-251.4-75.5c-4.5-21.3-12.7-41.3-24.6-59.5l9.3-18.8-42.1-42.1-18.8,9.3c-18.2-11.8-38.1-20.1-59.5-24.6l-6.7-19.9h-59.5l-6.7,19.9c-21.4,4.5-41.3,12.7-59.5,24.6l-18.8-9.3-42.1,42.1,9.3,18.8c-11.9,18.2-20.1,38.2-24.6,59.5l-19.9,6.7V-9.3l19.9,6.7c4.5,21.3,12.7,41.3,24.6,59.5l-9.3,18.8,42.1,42.1,18.8-9.3c18.2,11.8,38.1,20.1,59.5,24.6l6.7,19.9h59.5l6.7-19.9c21.4-4.5,41.3-12.7,59.5-24.6l18.8,9.3,42.1-42.1-9.3-18.8c11.9-18.2,20.1-38.2,24.6-59.5l19.9-6.7v-59.5l-19.9-6.7h0ZM-423.5,97c-75.1,0-136-60.9-136-136s60.9-136,136-136,136,60.9,136,136-60.9,136-136,136h0Z"/>
    <path class="cls-1" d="M-423.5-55c-13.2,0-24-10.8-24-24s10.8-24,24-24,24,10.8,24,24-10.8,24-24,24Z"/>
    <g>
      <path class="cls-1" d="M-423.5-183c-79.4,0-144,64.6-144,144s64.6,144,144,144S-279.5,40.4-279.5-39s-64.6-144-144-144ZM-500.6,62.9c4.9-18.1,16.4-33.5,31.7-43.7l6.4,63.6c-13.9-4.5-26.7-11.3-38.1-19.9ZM-423.5,89c-11.2,0-22-1.6-32.4-4.3l32.4-32.4,32.4,32.4c-10.4,2.7-21.2,4.3-32.4,4.3ZM-407-7h-8.5v-56h-16V-7h-8.5c-1.6-10.5-7.4-20.2-16.4-26.7-16.6-12-25.3-32.2-22.6-52.7,3.2-25.1,23.8-45.4,49-48.2,16.2-1.9,31.8,3.1,43.8,13.8,11.9,10.6,18.7,25.8,18.7,41.8s-8.3,34.3-22.7,45c-9.3,6.9-15.2,16.5-16.8,27h0ZM-393.4,11.4l-4.4,44-15.6-15.6,17.5-29.2c.8.3,1.7.5,2.5.8ZM-413.6,9l-9.9,16.4-9.9-16.4h19.8ZM-451.1,10.6l17.5,29.2-15.6,15.6-4.4-44c.8-.3,1.7-.6,2.5-.8h0ZM-384.4,82.9l6.4-63.6c15.4,10.1,26.8,25.6,31.7,43.7-11.4,8.6-24.2,15.5-38.1,19.9ZM-333.1,51.5c-9.6-26.5-31.1-47.6-58.1-56.4,1.1-6.2,4.8-12,10.5-16.2,18.3-13.5,29.2-35.2,29.2-57.9s-8.8-40.1-24.1-53.7c-15.3-13.6-35.8-20.1-56.3-17.8-32.4,3.7-58.9,29.8-63,62.1-3.3,26.3,7.8,52.2,29.1,67.7,5.4,3.9,8.9,9.6,10,15.8-27,8.9-48.4,29.9-58.1,56.4-23.2-23.2-37.6-55.2-37.6-90.5,0-70.6,57.4-128,128-128s128,57.4,128,128-14.4,67.3-37.6,90.5h0Z"/>
      <path class="cls-1" d="M-367.5,201h-32v-48h-16v48h-16v-48h-16v48h-32v-73.4c-5.4-1.8-10.8-3.9-16-6.3v91.3l52.7,45.2c5.4,4.6,12.2,7.1,19.3,7.1s13.9-2.5,19.3-7.1l52.7-45.2v-91.3c-5.2,2.3-10.6,4.4-16,6.3v73.4h0ZM-414.6,245.7c-4.9,4.2-12.8,4.2-17.7,0l-33.5-28.7h84.7l-33.5,28.7h0Z"/>
    </g>
  </g>
  <g>
    <path class="cls-3" d="M335.1-41.5c0,40.5,17.3,65.3,37.3,94,19.1,27.4,40.7,58.4,48.6,108,.5,3-1.5,5.8-4.5,6.2-3,.5-5.8-1.5-6.2-4.5-7.6-47.2-27.5-75.8-46.8-103.5-20.2-29-39.2-56.4-39.2-100.2,0-73.7,60-133.7,133.7-133.7s133.7,60,133.7,133.7-20.6,75.4-42.4,111c-17.4,28.4-35.4,57.9-43.7,93.1-.6,2.5-2.8,4.2-5.3,4.2h0c-.4,0-.8,0-1.3-.1-2.9-.7-4.7-3.6-4-6.5,8.7-36.9,27.1-67.1,45-96.3,21-34.3,40.8-66.7,40.8-105.4"/>
    <path class="cls-3" d="M500.3,173.2h-84.7c-3,0-5.4-2.4-5.4-5.4s2.4-5.4,5.4-5.4h84.7c3,0,5.4,2.4,5.4,5.4s-2.4,5.4-5.4,5.4Z"/>
    <path class="cls-3" d="M477.2,225.2h-40.3c-3,0-5.4-2.4-5.4-5.4s2.4-5.4,5.4-5.4h40.3c3,0,5.4,2.4,5.4,5.4s-2.4,5.4-5.4,5.4Z"/>
    <path class="cls-3" d="M458,257.1c-1.8,0-3.5-.9-4.5-2.4l-42.4-63.9c-.6-.9-.9-1.9-.9-3v-26.4c0-3,2.4-5.4,5.4-5.4s5.4,2.4,5.4,5.4v24.7l36.9,55.7,36.9-55.7v-24.7c0-3,2.4-5.4,5.4-5.4s5.4,2.4,5.4,5.4v26.4c0,1.1-.3,2.1-.9,3l-42.3,63.9c-1,1.5-2.7,2.4-4.5,2.4h.1Z"/>
    <path class="cls-3" d="M457.5-187.4c-3,0-5.4-2.4-5.4-5.4v-30.9c0-3,2.4-5.4,5.4-5.4s5.4,2.4,5.4,5.4v30.9c0,3-2.4,5.4-5.4,5.4Z"/>
    <path class="cls-3" d="M496.6-182.2c-.5,0-.9,0-1.4-.2-2.9-.8-4.6-3.8-3.8-6.7l8-29.8c.8-2.9,3.8-4.6,6.7-3.8,2.9.8,4.6,3.8,3.8,6.7l-8,29.8c-.7,2.4-2.8,4-5.2,4h-.1Z"/>
    <path class="cls-3" d="M533.1-167.1c-.9,0-1.9-.2-2.7-.7-2.6-1.5-3.5-4.8-2-7.4l15.5-26.7c1.5-2.6,4.8-3.5,7.4-2,2.6,1.5,3.5,4.8,2,7.4l-15.5,26.7c-1,1.7-2.8,2.7-4.7,2.7h0Z"/>
    <path class="cls-3" d="M564.4-143.1c-1.4,0-2.8-.5-3.8-1.6-2.1-2.1-2.1-5.6,0-7.7l21.8-21.8c2.1-2.1,5.6-2.1,7.7,0,2.1,2.1,2.1,5.6,0,7.7l-21.8,21.8c-1.1,1.1-2.5,1.6-3.8,1.6h-.1Z"/>
    <path class="cls-3" d="M588.4-111.8c-1.9,0-3.7-1-4.7-2.7-1.5-2.6-.6-5.9,2-7.4l26.7-15.5c2.6-1.5,5.9-.6,7.4,2s.6,5.9-2,7.4l-26.7,15.5c-.9.5-1.8.7-2.7.7h0Z"/>
    <path class="cls-3" d="M603.5-75.3c-2.4,0-4.6-1.6-5.2-4-.8-2.9.9-5.9,3.8-6.7l29.8-8c2.9-.8,5.9.9,6.7,3.8s-.9,5.9-3.8,6.7l-29.8,8c-.5,0-.9.2-1.4.2h0Z"/>
    <path class="cls-3" d="M639.6-36.2h-30.9c-3,0-5.4-2.4-5.4-5.4s2.4-5.4,5.4-5.4h30.9c3,0,5.4,2.4,5.4,5.4s-2.4,5.4-5.4,5.4h0Z"/>
    <path class="cls-3" d="M633.4,10.9c-.5,0-.9,0-1.4-.2l-29.8-8c-2.9-.8-4.6-3.8-3.8-6.7.8-2.9,3.8-4.6,6.7-3.8L634.9.2c2.9.8,4.6,3.8,3.8,6.7-.6,2.4-2.8,4-5.2,4h0Z"/>
    <path class="cls-3" d="M615.2,54.8c-.9,0-1.9-.2-2.7-.7l-26.7-15.4c-2.6-1.5-3.5-4.8-2-7.4s4.8-3.5,7.4-2l26.7,15.4c2.6,1.5,3.5,4.8,2,7.4-1,1.7-2.8,2.7-4.7,2.7h0Z"/>
    <path class="cls-3" d="M586.2,92.5c-1.4,0-2.8-.5-3.8-1.6l-21.8-21.8c-2.1-2.1-2.1-5.6,0-7.7s5.6-2.1,7.7,0l21.8,21.8c2.1,2.1,2.1,5.6,0,7.7-1.1,1.1-2.5,1.6-3.8,1.6h-.1Z"/>
    <path class="cls-3" d="M328.8,92.5c-1.4,0-2.8-.5-3.8-1.6-2.1-2.1-2.1-5.6,0-7.7l21.8-21.8c2.1-2.1,5.6-2.1,7.7,0s2.1,5.6,0,7.7l-21.8,21.8c-1.1,1.1-2.5,1.6-3.8,1.6h-.1Z"/>
    <path class="cls-3" d="M299.8,54.8c-1.9,0-3.7-1-4.7-2.7-1.5-2.6-.6-5.9,2-7.4l26.7-15.4c2.6-1.5,5.9-.6,7.4,2s.6,5.9-2,7.4l-26.7,15.4c-.9.5-1.8.7-2.7.7h0Z"/>
    <path class="cls-3" d="M281.6,10.9c-2.4,0-4.6-1.6-5.2-4-.8-2.9.9-5.9,3.8-6.7l29.8-8c2.9-.8,5.9.9,6.7,3.8s-.9,5.9-3.8,6.7l-29.8,8c-.5.1-.9.2-1.4.2h-.1Z"/>
    <path class="cls-3" d="M306.3-36.2h-30.9c-3,0-5.4-2.4-5.4-5.4s2.4-5.4,5.4-5.4h30.9c3,0,5.4,2.4,5.4,5.4s-2.4,5.4-5.4,5.4Z"/>
    <path class="cls-3" d="M311.5-75.3c-.5,0-.9,0-1.4-.2l-29.8-8c-2.9-.8-4.6-3.8-3.8-6.7.8-2.9,3.8-4.6,6.7-3.8l29.8,8c2.9.8,4.6,3.8,3.8,6.7-.7,2.4-2.8,4-5.2,4h-.1Z"/>
    <path class="cls-3" d="M326.6-111.8c-.9,0-1.9-.2-2.7-.7l-26.7-15.5c-2.6-1.5-3.5-4.8-2-7.4s4.8-3.5,7.4-2l26.7,15.5c2.6,1.5,3.5,4.8,2,7.4-1,1.7-2.8,2.7-4.7,2.7h0Z"/>
    <path class="cls-3" d="M350.6-143.1c-1.4,0-2.8-.5-3.8-1.6l-21.8-21.8c-2.1-2.1-2.1-5.6,0-7.7s5.6-2.1,7.7,0l21.8,21.8c2.1,2.1,2.1,5.6,0,7.7-1.1,1.1-2.5,1.6-3.8,1.6h-.1Z"/>
    <path class="cls-3" d="M381.9-167.1c-1.9,0-3.7-1-4.7-2.7l-15.4-26.7c-1.5-2.6-.6-5.9,2-7.4s5.9-.6,7.4,2l15.4,26.7c1.5,2.6.6,5.9-2,7.4-.9.5-1.8.7-2.7.7h0Z"/>
    <path class="cls-3" d="M418.4-182.2c-2.4,0-4.6-1.6-5.2-4l-8-29.8c-.8-2.9.9-5.9,3.8-6.7s5.9.9,6.7,3.8l8,29.8c.8,2.9-.9,5.9-3.8,6.7-.5,0-.9.2-1.4.2h-.1Z"/>
    <path class="cls-3" d="M472.7,173.2h-1c-3-.6-4.9-3.4-4.3-6.3l23-122.4-31.5,13.5c-1.4.6-3,.6-4.4,0l-28.8-13.1,21.6,122.2c.5,3-1.4,5.8-4.4,6.3s-5.8-1.4-6.3-4.4l-23.4-132.4c-.4-2,.4-4,2-5.2s3.7-1.5,5.6-.6l36,16.4,38.7-16.5c1.8-.8,4-.5,5.5.8,1.6,1.3,2.3,3.3,1.9,5.2l-24.8,132.4c-.5,2.6-2.8,4.4-5.3,4.4h0v-.3h-.1Z"/>
    <path class="cls-3" d="M423.3,12.2c-1.1,0-2.2-.3-3.2-1-1.9-1.4-2.7-3.8-2-6.1l12.1-37-31.6-22.8c-1.9-1.4-2.7-3.8-2-6.1.7-2.2,2.8-3.8,5.2-3.8h39l11.9-37c.7-2.2,2.8-3.8,5.2-3.8h0c2.4,0,4.4,1.5,5.2,3.8l12,37.1h39c2.4,0,4.4,1.5,5.2,3.8.7,2.2,0,4.7-2,6.1l-31.5,22.8,12.1,37c.7,2.2,0,4.7-2,6.1-1.9,1.4-4.5,1.4-6.4,0l-31.5-22.9-31.5,22.9c-1,.7-2.1,1-3.2,1h0ZM457.9-24c1.1,0,2.2.3,3.2,1l21.1,15.4-8.1-24.8c-.7-2.2,0-4.7,2-6.1l21.1-15.3h-26.1c-2.4,0-4.4-1.5-5.2-3.8l-8-24.8-8,24.8c-.7,2.2-2.8,3.8-5.2,3.8h-26.1l21.1,15.2c1.9,1.4,2.7,3.8,2,6.1l-8.1,24.8,21-15.4c1-.7,2.1-1,3.2-1h.1Z"/>
  </g>
  <g id="_15_Website" data-name=" 15 Website">
    <g>
      <path class="cls-2" d="M5.7,26.2h13.7c2.3,0,4.2-1.9,4.2-4.2s0,5.7,0-16-1.9-4.2-4.2-4.2H5.7c-2.3,0-4.2,1.9-4.2,4.2,0,19.4,0,10.5,0,16s1.9,4.2,4.2,4.2h0ZM21.5,10.4H3.5"/>
      <path class="cls-2" d="M6.5,7.3h.8c.5,0,1-.4,1-1s-.4-1-1-1h-.8c-.5,0-1,.4-1,1s.4,1,1,1h0Z"/>
      <path class="cls-2" d="M11.2,7.3h.8c.5,0,1-.4,1-1s-.4-1-1-1h-.8c-.5,0-1,.4-1,1s.4,1,1,1h0Z"/>
      <path class="cls-2" d="M16.5,14.9h-8.1"/>
      <path class="cls-2" d="M16.5,22.3h-8.1"/>
      <path class="cls-2" d="M16.5,18.6h-8.1"/>
    </g>
  </g>
</svg>