<svg id="Layer_1" data-name="Layer 1" xmlns="http://www.w3.org/2000/svg" version="1.1" viewBox="0 0 44 44">
  <defs>
    <style>
      .cls-1 {
        fill: #000;
        stroke-width: 0px;
      }
    </style>
  </defs>
  <path class="cls-1" d="M1.1,42.9h32.5v-20h9.2V6.6c0-3-2.4-5.5-5.5-5.5H6.6c-3,0-5.5,2.4-5.5,5.5v36.2ZM41.1,6.6v14.5h-7.4V6.6c0-2,1.7-3.7,3.7-3.7s3.7,1.7,3.7,3.7ZM2.9,6.6c0-2,1.7-3.7,3.7-3.7h26.7s0,.1-.1.1c0,0-.1.1-.2.2,0,0-.1.2-.2.2,0,0-.1.2-.2.2,0,.1-.1.2-.2.3s-.1.2-.1.2c0,.1-.1.2-.1.3s0,.2-.1.2c0,.1,0,.2-.1.3,0,0,0,.2,0,.2,0,.1,0,.2-.1.3,0,0,0,.2,0,.2,0,.1,0,.3,0,.4v35.2H2.9V6.6Z"/>
  <path class="cls-1" d="M25.8,21.1h-7.5v-4.3h3.6V7.9h-8.9v8.9h3.6v4.3h-7.5v4.3h-3.2v8.2h8.2v-8.2h-3.2v-2.5h13.2v2.5h-3.2v8.2h8.2v-8.2h-3.2v-4.3h0ZM14.7,9.7h5.4v5.4h-5.4v-5.4ZM12.3,31.8h-4.6v-4.6h4.6v4.6h0ZM27.2,31.8h-4.6v-4.6h4.6v4.6Z"/>
</svg>