<?xml version="1.0" encoding="utf-8"?>
<!-- Generator: Adobe Illustrator 24.3.0, SVG Export Plug-In . SVG Version: 6.00 Build 0)  -->
<svg version="1.1" id="Layer_1" xmlns="http://www.w3.org/2000/svg" xmlns:xlink="http://www.w3.org/1999/xlink" x="0px" y="0px"
	 viewBox="0 0 272 239" style="enable-background:new 0 0 272 239;" xml:space="preserve">
<style type="text/css">
	.st0{fill:#92C5EB;}
	.st1{fill:#FFFFFF;}
	.st2{fill:#8190A0;}
	.st3{fill:#FDB913;}
	.st4{fill:#5988C6;}
	.st5{fill:none;stroke:#FFFFFF;stroke-miterlimit:10;}
</style>
<g>
	<path class="st0" d="M142.6,94c13.2,6.7,40-2.8,52.6-14.2l-3.6-26.5l-57.3,3.1L142.6,94z"/>
	<path d="M153.6,96.5c-4.4,0-8.1-0.8-11.1-2.3l-0.1-0.1V94l-8.3-37.8l57.9-3.1l3.6,26.9l-0.1,0.1c-3.1,2.8-7.1,5.5-11.7,8
		c-4.6,2.4-9.5,4.5-14.5,6c-5.3,1.5-10.1,2.4-14.6,2.6C154.3,96.5,153.9,96.5,153.6,96.5z M142.9,93.8c3.1,1.5,7.1,2.3,11.8,2.1
		c4.4-0.1,9.3-0.9,14.5-2.6c4.8-1.4,9.9-3.5,14.4-5.9s8.5-5.1,11.5-7.8l-3.5-26.1l-56.8,3.1L142.9,93.8z"/>
</g>
<path d="M181.6,65.2c0,0,4.8,15.3,12.8,15c8.1-0.4,11-21.2,11-21.2L181.6,65.2z"/>
<g>
	<g>
		<polygon class="st1" points="67.1,132.6 76.7,131.2 79.8,143.3 69.9,143.7 		"/>
		<path d="M69.6,143.9l-2.8-11.6l10-1.4l3.1,12.6L69.6,143.9z M67.5,132.8l2.6,10.6l9.4-0.4l-2.9-11.6L67.5,132.8z"/>
	</g>
	<g>
		
			<rect x="67.6" y="133.7" transform="matrix(0.9963 -8.581222e-02 8.581222e-02 0.9963 -11.2266 6.7157)" width="9.8" height="0.5"/>
	</g>
	<g>
		
			<rect x="68.1" y="136.1" transform="matrix(0.9992 -4.089244e-02 4.089244e-02 0.9992 -5.5147 3.1013)" width="9.9" height="0.5"/>
	</g>
	<g>
		
			<rect x="73.4" y="134.2" transform="matrix(1.767410e-02 -0.9998 0.9998 1.767410e-02 -66.7618 210.3987)" width="0.5" height="10"/>
	</g>
	<g>
		
			<rect x="73.9" y="135.8" transform="matrix(7.618210e-02 -0.9971 0.9971 7.618210e-02 -71.9234 204.1312)" width="0.5" height="10.2"/>
	</g>
	<g>
		
			<rect x="74.3" y="137.2" transform="matrix(8.293980e-02 -0.9966 0.9966 8.293980e-02 -73.4966 204.9307)" width="0.5" height="10.4"/>
	</g>
	<g>
		<rect x="71.7" y="140.9" transform="matrix(0.1103 -0.9939 0.9939 0.1103 -78.2949 198.987)" width="0.5" height="4.7"/>
	</g>
	<path class="st2" d="M70.9,131.8l-9.1,0.9c0,0-0.4,5.8,0.9,10.8c0.9,0,1.3,0.2,1.3,0.6c0.2,1.3-0.3,4.5-0.2,5.4
		c0.8,4.2,2.6,7.4,7.2,7.2s13.6-0.6,13.6-0.6s0.3-5.5-5.7-7c-3.5-0.9-5.4-3.1-5.5-5.4c-3.5-1.1-3.8-4.9-4.1-6.7
		C68.8,133.1,70.9,131.8,70.9,131.8z"/>
	<g>
		<path d="M73.9,155.3c-0.1-0.4-0.2-0.9-0.2-1.4h0.5c0,0.4,0.1,0.8,0.2,1.2L73.9,155.3z M74.3,152.7l-0.5-0.2
			c0.1-0.4,0.3-0.9,0.6-1.3l0.4,0.3C74.6,151.9,74.4,152.3,74.3,152.7z M75.6,150.7l-0.3-0.4c0.3-0.3,0.7-0.5,1.2-0.7l0.3,0.4
			C76.3,150.2,75.9,150.5,75.6,150.7z M77.8,149.6l-0.2-0.5c0.8-0.2,1.3-0.3,1.4-0.3l0.1,0.5l0,0l0,0
			C79,149.4,78.5,149.5,77.8,149.6z"/>
	</g>
	<g>
		<path class="st1" d="M74.7,129.7l49.1-4.1L74.7,129.7c0,0-6.8,4.8,0.7,15.4c0,0,73,4.8,73.6-3.1s-6.3-40.8-14.5-42.9
			c-8.2-2-43.6,4.8-43.6,4.8L74.7,129.7z"/>
		<path d="M117,146.8c-1.6,0-3.3,0-5,0c-18.1-0.2-36.4-1.4-36.6-1.4h-0.1l-0.1-0.1c-1.7-2.5-2.8-4.8-3.3-7c-0.3-1.8-0.3-3.4,0.2-4.9
			c0.8-2.4,2.2-3.7,2.6-3.8l16.2-25.9H91c0.1,0,9-1.7,18.7-3.1c13.2-1.9,21.6-2.5,25-1.6c4.9,1.2,8.8,12.7,10.7,19.4
			c1.3,4.4,2.4,9.4,3.1,13.9c0.7,4.3,1,7.8,0.9,9.8c-0.1,1.1-1.2,2-3.5,2.6c-2,0.6-4.8,1.1-8.5,1.4
			C132.1,146.6,125.3,146.8,117,146.8z M75.5,144.9c1.6,0.1,19.1,1.2,36.5,1.4c10.6,0.1,19.1-0.1,25.3-0.7
			c9.4-0.9,11.4-2.5,11.5-3.6c0.2-2-0.2-5.4-0.9-9.7c-0.8-4.5-1.8-9.4-3.1-13.9c-1.4-5.1-3.1-9.5-4.7-12.8c-1.9-3.7-3.8-5.9-5.6-6.3
			c-4.2-1-15.8,0.3-24.8,1.6c-9.2,1.4-17.6,2.9-18.6,3.1l-15.8,25.3l48.5-4l0.1,0.5L74.8,130c-0.3,0.3-1.7,1.4-2.3,3.6
			c-0.4,1.4-0.4,3-0.1,4.7C72.8,140.3,73.9,142.5,75.5,144.9z"/>
	</g>
	<g>
		<path d="M64.3,148.7c-0.2-0.3-0.3-0.8-0.3-1.3c-0.1,0.9-0.1,1.6,0,2c0.8,4.2,2.6,7.4,7.2,7.2s13.6-0.6,13.6-0.6s0-0.4-0.1-1
			c-1.7,0.2-8.2,0.3-12.9,0.6C65.5,156,64.8,150,64.3,148.7z"/>
		<path d="M63.6,143.5c-0.7-3.8-0.9-7.5-0.8-11l-1,0.1c0,0-0.4,5.8,0.9,10.8C63.1,143.4,63.4,143.4,63.6,143.5z"/>
	</g>
	<g>
		<path d="M73.1,149.6c-0.1,0-0.2-0.1-0.3-0.2c-0.1-0.1,0-0.3,0.1-0.3l1.5-1.3l-3.4,0.8c-0.1,0-0.3,0-0.3-0.2
			c-0.1-0.1,0-0.3,0.1-0.3l2.6-2.5l-3-0.6c-0.2,0-0.3-0.2-0.2-0.3c0-0.2,0.2-0.3,0.3-0.2l3.4,0.7c0.1,0,0.2,0.1,0.2,0.2
			c0,0.1,0,0.2-0.1,0.3l-2.3,2.2l3.5-0.9c0.1,0,0.3,0,0.3,0.2c0.1,0.1,0,0.3-0.1,0.3l-1.6,1.4l3.8-0.6c0.2,0,0.3,0.1,0.3,0.3
			s-0.1,0.3-0.3,0.3L73.1,149.6L73.1,149.6z"/>
	</g>
	<g>
		<path d="M72.9,144.1L72.9,144.1c-0.2,0-1.5-0.7-2.7-1.8c-1.6-1.5-2.1-3.1-1.4-4.5c0.3-0.6,0.7-0.9,1.1-0.9c0.9,0.1,1.8,2,2.4,3.6
			s1,3.3,1,3.3c0,0.1,0,0.2-0.1,0.3C73,144.1,72.9,144.1,72.9,144.1z M69.7,137.4c-0.3,0-0.4,0.3-0.5,0.6c-1.2,2.5,2,4.6,3.3,5.4
			c-0.2-0.6-0.5-1.6-0.9-2.7C71.3,139.9,70.4,137.5,69.7,137.4L69.7,137.4z"/>
	</g>
	<g>
		<path d="M72.9,144.3C72.8,144.3,72.8,144.3,72.9,144.3c-0.1,0-1.3-0.1-2.6-0.4c-1.8-0.4-2.9-1-3.1-1.8c-0.2-0.3,0-0.6,0.1-0.7
			c0.4-0.3,1.9,0.3,3.2,0.9c1.3,0.7,2.5,1.4,2.6,1.4c0.1,0.1,0.2,0.2,0.1,0.3S73,144.3,72.9,144.3z M67.6,141.9L67.6,141.9
			c0.3,0.6,1.2,1.1,2.8,1.5c0.4,0.1,0.9,0.2,1.2,0.3c-0.3-0.2-0.9-0.4-1.3-0.7C68.3,141.9,67.7,141.8,67.6,141.9z"/>
	</g>
</g>
<g>
	<polygon class="st1" points="125.1,195.6 126.1,177.8 162.7,174.8 162.3,197.8 137.4,198.1 	"/>
	<path d="M137.4,198.4l-12.5-2.6l1-18.2l37.1-3.1l-0.4,23.6L137.4,198.4z M125.4,195.3l12,2.6l24.7-0.3l0.4-22.5l-36.1,3
		L125.4,195.3z"/>
</g>
<g>
	<rect x="130.8" y="178.6" transform="matrix(1 -8.873758e-03 8.873758e-03 1 -1.6601 1.1703)" width="0.5" height="18.1"/>
</g>
<g>
	<rect x="136.4" y="178.5" transform="matrix(1 -8.873454e-03 8.873454e-03 1 -1.6642 1.22)" width="0.5" height="19.3"/>
</g>
<g>
	<rect x="142.6" y="178.3" transform="matrix(1 -8.873625e-03 8.873625e-03 1 -1.6631 1.2751)" width="0.5" height="19.5"/>
</g>
<g>
	<rect x="140.7" y="187.4" transform="matrix(9.023896e-03 -1 1 9.023896e-03 -38.8912 335.9571)" width="18.7" height="0.5"/>
</g>
<g>
	<rect x="156.1" y="176.3" transform="matrix(1 -8.542223e-03 8.542223e-03 1 -1.5853 1.3424)" width="0.5" height="19.9"/>
</g>
<path class="st2" d="M119.1,212c0,0-0.3-13.1,5.8-23.2c11.7,6.2,34.2,0.3,37.9-4.3c6.4,8,26,17.7,31,18c20,1.4,18.5,16.5,18.5,16.5
	s-35.7,0.3-51.1-2.8c-5.5-1.1-9.4-8-13.7-7.8c-4.8,0.3-3.2,5.7-3.2,5.7C133.3,215.6,127.1,215.3,119.1,212z"/>
<g>
	<path d="M144.3,211.2c-12.5,1.1-21.6-1.3-25.3-2.9c-0.2,2.7,0,4.9,0,4.9s12.7,4.6,25.8,2.1C144.8,215.5,144.3,212.9,144.3,211.2z"
		/>
	<path d="M154.6,212.3c2,1.7,4.2,3.3,6.6,3.8c15.4,3.1,51.1,2.8,51.1,2.8s0.2-1.3-0.3-3C195.4,217.3,164.7,215.1,154.6,212.3z"/>
</g>
<g>
	<path d="M188.6,216.1H188c0-0.1,0-0.2,0-0.3h0.5C188.6,216,188.6,216,188.6,216.1z M188.6,214.6h-0.5c0-0.4,0.1-0.9,0.1-1.3
		l0.5,0.1C188.6,213.7,188.6,214.1,188.6,214.6z M188.9,212l-0.5-0.1c0.1-0.4,0.1-0.9,0.2-1.3l0.5,0.1
		C189,211.1,188.9,211.5,188.9,212z M189.3,209.5l-0.5-0.1c0.1-0.4,0.2-0.9,0.3-1.3l0.5,0.2C189.5,208.6,189.4,209.1,189.3,209.5z
		 M190,207l-0.5-0.2c0.2-0.4,0.3-0.9,0.5-1.2l0.4,0.3C190.3,206.3,190.2,206.6,190,207z M191.1,204.7l-0.4-0.3
		c0.3-0.4,0.5-0.8,0.9-1l0.3,0.3C191.6,204.1,191.4,204.4,191.1,204.7z M192.8,203l-0.3-0.4c0.7-0.4,1.2-0.4,1.4-0.4l0,0v0.5l0,0
		C193.9,202.7,193.4,202.7,192.8,203z"/>
</g>
<g>
	<path d="M174.9,202.6c-0.1,0-0.1,0-0.2-0.1c-0.1-0.1-0.1-0.2-0.1-0.3l1.7-5.9l-8,3.5c-0.1,0-0.2,0-0.3-0.1s-0.1-0.2-0.1-0.3
		l3.1-7.4l-8.6,4c-0.1,0.1-0.3,0-0.3-0.1c-0.1-0.1-0.1-0.2,0-0.3l3.3-6c0.1-0.1,0.3-0.2,0.3-0.1c0.1,0.1,0.2,0.3,0.1,0.3l-2.9,5.3
		l8.4-3.9c0.1-0.1,0.2,0,0.3,0.1s0.1,0.2,0.1,0.3l-3.1,7.4l7.9-3.4c0.1,0,0.2,0,0.3,0.1s0.1,0.2,0.1,0.3l-1.7,5.9l7.5-3.2
		c0.2-0.1,0.3,0,0.3,0.2c0.1,0.2,0,0.3-0.2,0.3L174.9,202.6C175,202.6,175,202.6,174.9,202.6z"/>
</g>
<g>
	<path d="M180.7,192.8c-1.9,0-4-0.3-6.5-0.8c-4.7-0.9-8.8-2.5-8.8-2.5l-0.3-0.2l0.3-0.3c0,0,2.8-3,6.4-5.6c2.1-1.6,4.1-2.8,5.9-3.6
		c2.2-0.9,4.2-1.3,5.8-0.9c2.2,0.5,3.7,2.4,4.6,5.4c0.9,2.9,0.4,5.1-1,6.5c-1.2,1.1-3.1,1.7-5.5,1.8
		C181.2,192.8,180.9,192.8,180.7,192.8z M166,189.3c2.5,0.9,16.2,5.4,20.5,1.4c1.4-1.3,1.7-3.2,0.9-6s-2.2-4.5-4.2-5
		c-3.4-0.9-8,1.9-11.2,4.3C169.2,186.2,166.8,188.5,166,189.3z"/>
</g>
<g>
	<path d="M165.3,189.9l0.1-0.6c0,0,0.3-3.4,1.4-7.3c0.7-2.3,1.4-4.3,2.4-6.1c1.1-2.2,2.5-3.8,3.9-5c2-1.5,4.2-2,6.6-1.7
		c1.9,0.3,3,1,3.3,2.2c0.5,2.2-2.2,6-8.2,11.1c-4.4,3.8-9,7-9,7.1L165.3,189.9z M178.3,169.7c-1.8,0-3.4,0.6-4.8,1.7
		c-3.2,2.5-5.1,7.2-6.1,10.8c-0.9,3-1.3,5.5-1.4,6.7c1.3-0.9,5-3.6,8.5-6.6c7.2-6.3,8.4-9.3,8.1-10.6c-0.3-0.9-1.2-1.5-2.9-1.8
		C179.2,169.7,178.7,169.7,178.3,169.7z"/>
</g>
<g>
	<path class="st0" d="M49.2,126c-2.6-11.4-3.5-34.9,18.5-58.6c4.5-4.8,7.5-9.4,14.4-11c16.6-3.9,37.2-6.5,37.2-6.5
		c-7.5,12-12.2,31.3-13.1,45.1C85.7,114.8,52.6,140.7,49.2,126z"/>
	<path d="M54.6,130.6c-0.8,0-1.4-0.1-2-0.3c-1.9-0.6-3.1-2-3.7-4.3c-0.8-3.4-1.2-7-1.3-10.6c-0.1-4.7,0.3-9.4,1.4-14.1
		c2.6-12.2,8.8-23.6,18.5-34c0.7-0.8,1.4-1.4,2-2.2c3.6-4,6.6-7.5,12.5-8.8c16.4-3.8,37-6.5,37.2-6.5l0.5-0.1l-0.3,0.4
		c-3.5,5.5-6.6,13.1-9,21.8c-2.1,7.8-3.6,16.1-4,23.2v0.1l-0.1,0.1c-9.8,9.4-20.6,18.5-29.6,24.8c-5.4,3.7-10,6.5-13.9,8.2
		C59.6,129.8,56.8,130.6,54.6,130.6z M118.6,50.2c-3.4,0.4-21.7,2.9-36.6,6.5c-5.7,1.4-8.8,4.8-12.2,8.7c-0.6,0.7-1.3,1.4-2,2.2
		C58.2,78,52.1,89.4,49.5,101.4c-1,4.6-1.4,9.4-1.3,13.9c0.1,3.7,0.5,7.2,1.3,10.5c0.5,2.1,1.5,3.3,3.3,3.9c0.6,0.2,1.2,0.3,2,0.3
		c4.6,0,12-3.6,21.7-10.4c8.9-6.3,19.6-15.3,29.4-24.7c0.4-7.1,1.9-15.4,4-23.2C112.2,63.3,115.2,55.9,118.6,50.2z"/>
</g>
<g>
	<path class="st1" d="M107,51.3c0,0-1.4,19.8-2,29.9l-3.7,2.9c0,0,1.7-26.6,2.9-32.7L107,51.3z"/>
	<path d="M101,84.7v-0.6c0-0.3,1.7-26.7,3-32.7v-0.2l3.3-0.2v0.3c0,0.2-1.4,19.9-2,29.9v0.1L101,84.7z M104.4,51.7
		c-1.1,5.9-2.6,28.1-2.9,32l3.2-2.5c0.5-9.4,1.8-27,2-29.6L104.4,51.7z"/>
</g>
<g>
	<path class="st1" d="M52.6,121.7c0,0,48.2-37.1,61.6-47.4c15-11.6,39.7-9.4,43.1,12.8c4.7,30.3,8.3,91.2,8.3,91.2
		s-21.9,19.7-45.4,2.7c0,0,2.6-82.2-5.5-75.2c-8.2,7-26.8,27.3-42.8,28.9C56,136.2,52.6,121.7,52.6,121.7z"/>
	<path d="M140.4,188.1c-1.1,0-2.2-0.1-3.2-0.2c-6-0.6-11.7-2.9-17.1-6.8L120,181v-0.2c0-0.2,0.6-18.3,0.3-36.6
		c-0.2-10.7-0.5-19.4-1.1-25.8c-0.9-9.9-2.3-12.4-3.2-12.9c-0.3-0.2-0.7-0.1-1.1,0.3c-1.4,1.3-3.2,2.9-5.3,4.8
		c-4.8,4.5-10.8,10.1-17.4,14.9c-3.6,2.6-7,4.7-10.1,6.2c-3.7,1.8-7.1,2.8-10.1,3.1c-3.7,0.3-7-0.1-9.9-1.4c-2.3-1-4.3-2.6-6-4.6
		c-2.9-3.4-3.7-7.1-3.7-7.1v-0.2l0.2-0.1c0.5-0.3,48.3-37.2,61.6-47.4c4.3-3.3,9.4-5.6,14.8-6.5s10.6-0.5,15.1,1.3
		c3.6,1.4,6.5,3.7,8.8,6.5c2.5,3.1,4.1,7.1,4.8,11.6c4.7,29.9,8.2,90.6,8.3,91.2v0.1l-0.1,0.1c-0.1,0.1-5.6,5-14,7.8
		C148,187.5,144.2,188.1,140.4,188.1z M120.5,180.8c5.3,3.8,10.9,6,16.7,6.6c4.7,0.5,9.5-0.1,14.4-1.7c7.7-2.6,13-7,13.8-7.7
		c-0.2-3.1-3.7-61.8-8.3-91.1c-0.7-4.5-2.3-8.2-4.7-11.4c-2.2-2.8-5.2-4.9-8.7-6.4c-4.4-1.8-9.6-2.2-14.9-1.3
		c-5.3,0.9-10.3,3.1-14.5,6.5c-12.8,10-58.6,45.1-61.5,47.4c0.2,0.8,1.2,3.9,3.7,6.8c1.6,2,3.6,3.5,5.9,4.4c2.8,1.3,6,1.7,9.6,1.3
		c3.1-0.3,6.4-1.4,9.9-3.1c3.1-1.5,6.5-3.6,10-6.1c6.5-4.8,12.5-10.4,17.3-14.9c2-2,3.8-3.6,5.3-4.8c0.6-0.5,1.1-0.6,1.6-0.3
		c0.9,0.4,1.5,1.8,2.2,4.3c0.5,2.2,1,5.2,1.4,9c0.6,6.4,1,15.1,1.1,25.8C121,161.7,120.5,179.1,120.5,180.8z"/>
</g>
<g>
	<path class="st0" d="M129.3,184h-0.5c0,0,0-0.3,0-0.8h0.5C129.3,183.7,129.3,184,129.3,184z M129.3,181.9h-0.5c0-0.4,0-0.9,0-1.3
		h0.5C129.3,181.1,129.3,181.5,129.3,181.9z M129.4,179.3h-0.5c0-0.4,0-0.9,0-1.3h0.5C129.4,178.5,129.4,178.9,129.4,179.3z
		 M129.4,176.7h-0.5c0-0.4,0-0.9,0-1.3h0.5C129.4,175.8,129.4,176.3,129.4,176.7z M129.5,174.1H129c0-0.4,0-0.9,0-1.3h0.5
		C129.5,173.3,129.5,173.7,129.5,174.1z M129.5,171.5H129c0-0.4,0-0.9,0-1.3h0.5C129.5,170.6,129.5,171.1,129.5,171.5z M129.5,168.9
		H129c0-0.4,0-0.9,0-1.3h0.5C129.5,168.1,129.5,168.5,129.5,168.9z M129.5,166.4H129c0-0.4,0-0.9,0-1.3h0.5
		C129.5,165.5,129.5,166,129.5,166.4z M129.5,163.8H129c0-0.4,0-0.9,0-1.3h0.5C129.5,162.9,129.5,163.3,129.5,163.8z M129.5,161.2
		H129c0-0.4,0-0.9,0-1.3h0.5C129.5,160.4,129.5,160.8,129.5,161.2z M129.5,158.6H129c0-0.4,0-0.9,0-1.3h0.5
		C129.5,157.7,129.5,158.1,129.5,158.6z M129.5,156H129l0,0c0-0.4,0-0.9,0-1.3h0.5C129.5,155.2,129.5,155.5,129.5,156L129.5,156z
		 M129,153.4c0-0.4,0-0.9,0-1.3h0.5c0,0.4,0,0.9,0,1.3H129z M129,150.8c0-0.4,0-0.9,0-1.3h0.5c0,0.4,0,0.9,0,1.3H129z M129,148.2
		c0-0.4,0-0.9,0-1.3h0.5c0,0.4,0,0.9,0,1.3H129z M129,145.6c0-0.4,0-0.9,0-1.3h0.5c0,0.4,0,0.9,0,1.3H129z M128.9,143.1
		c0-0.4,0-0.9,0-1.3h0.5c0,0.4,0,0.9,0,1.3H128.9z M128.9,140.5c0-0.4,0-0.9,0-1.3h0.5c0,0.4,0,0.9,0,1.3H128.9z M128.9,137.9
		c0-0.4,0-0.9,0-1.3h0.5c0,0.4,0,0.9,0,1.3H128.9z M128.9,135.3c0-0.4,0-0.9,0-1.3h0.5c0,0.4,0,0.9,0,1.3H128.9z M128.8,132.7
		c0-0.4,0-0.9,0-1.3h0.5c0,0.4,0,0.9,0,1.3H128.8z M128.8,130.1c0-0.4,0-0.9,0-1.3h0.5c0,0.4,0,0.9,0,1.3H128.8z M128.7,127.5
		c0-0.4,0-0.9,0-1.3h0.5c0,0.4,0,0.9,0,1.3H128.7z M128.6,124.9c0-0.4,0-0.9-0.1-1.3h0.5c0,0.4,0,0.9,0.1,1.3H128.6z M64.8,122.4
		c-0.4,0-0.9-0.1-1.4-0.2l0.1-0.5c0.4,0.1,0.9,0.1,1.3,0.2V122.4z M66.2,122.3l-0.1-0.5c0.4-0.1,0.9-0.1,1.3-0.3l0.1,0.5
		C67,122.3,66.6,122.3,66.2,122.3z M128.5,122.3c0-0.4,0-0.9-0.1-1.3h0.5c0,0.4,0,0.9,0.1,1.3H128.5z M62.3,121.9
		c-0.4-0.2-0.9-0.4-1.2-0.7l0.3-0.4c0.3,0.3,0.7,0.4,1.1,0.6L62.3,121.9z M68.8,121.8l-0.2-0.5c0.4-0.2,0.8-0.3,1.2-0.4l0.2,0.5
		C69.6,121.5,69.2,121.7,68.8,121.8z M71.1,120.7l-0.3-0.4c0,0,0.1,0,0.1-0.1c0.3-0.2,0.6-0.3,1-0.5l0.3,0.4
		C71.9,120.4,71.5,120.6,71.1,120.7C71.2,120.7,71.2,120.7,71.1,120.7z M60.1,120.3c-0.5-0.6-0.8-1.1-0.8-1.1l0.5-0.2
		c0,0,0.2,0.4,0.7,1L60.1,120.3z M128.4,119.8c0-0.4,0-0.9-0.1-1.3h0.5c0,0.4,0,0.9,0.1,1.3H128.4z M73.4,119.5l-0.3-0.4
		c0.3-0.2,0.7-0.4,1.1-0.7l0.3,0.4C74.2,119,73.8,119.3,73.4,119.5z M75.6,118.1l-0.3-0.4c0.3-0.3,0.7-0.5,1.1-0.7l0.3,0.4
		C76.3,117.6,76,117.8,75.6,118.1z M128.3,117.2c0-0.4-0.1-0.9-0.1-1.3h0.5c0,0.4,0.1,0.9,0.1,1.3H128.3z M77.8,116.7l-0.3-0.4
		c0.3-0.3,0.7-0.5,1.1-0.8l0.3,0.4C78.5,116.1,78.1,116.4,77.8,116.7z M79.9,115.1l-0.3-0.4c0.3-0.3,0.7-0.5,1-0.8l0.3,0.4
		C80.7,114.6,80.3,114.9,79.9,115.1z M128.1,114.6c0-0.4-0.1-0.9-0.1-1.3h0.5c0,0.4,0.1,0.9,0.1,1.3H128.1z M82,113.7l-0.3-0.4
		c0.3-0.3,0.7-0.5,1-0.8l0.3,0.4C82.8,113.2,82.4,113.4,82,113.7z M84.1,112.1l-0.3-0.4c0.3-0.3,0.7-0.5,1-0.8l0.3,0.4
		C84.8,111.6,84.5,111.9,84.1,112.1z M128,112c0-0.4-0.1-0.9-0.1-1.3h0.5c0,0.4,0.1,0.9,0.1,1.3H128z M86.3,110.6l-0.3-0.4
		c0.3-0.3,0.7-0.5,1-0.8l0.3,0.4C86.9,110.1,86.6,110.4,86.3,110.6z M127.8,109.4c0-0.4-0.1-0.9-0.1-1.3h0.5c0,0.4,0.1,0.9,0.1,1.3
		H127.8z M88.4,109.1l-0.3-0.4c0.3-0.3,0.7-0.5,1-0.8l0.3,0.4C89.1,108.6,88.7,108.8,88.4,109.1z M90.4,107.6l-0.3-0.4l1-0.8
		l0.3,0.4L90.4,107.6z M127.6,106.9c0-0.4-0.1-0.9-0.1-1.3l0.5-0.1c0,0.4,0.1,0.9,0.1,1.3L127.6,106.9z M92.6,106l-0.3-0.4l1-0.8
		l0.3,0.4L92.6,106z M94.7,104.5l-0.3-0.3c0.3-0.3,0.7-0.5,1-0.8l0.3,0.4C95.4,104,95,104.2,94.7,104.5z M127.4,104.2
		c0-0.4-0.1-0.9-0.1-1.3l0.5-0.1c0,0.4,0.1,0.9,0.1,1.3L127.4,104.2z M96.7,103l-0.3-0.4c0.3-0.3,0.7-0.5,1-0.8l0.3,0.4
		C97.4,102.5,97.1,102.8,96.7,103z M127.2,101.7c-0.1-0.4-0.1-0.9-0.2-1.3l0.5-0.1c0.1,0.4,0.1,0.9,0.2,1.3L127.2,101.7z
		 M98.8,101.5l-0.3-0.4c0.3-0.3,0.7-0.5,1-0.8l0.3,0.4C99.5,101,99.2,101.3,98.8,101.5z M101,100l-0.3-0.4c0.3-0.3,0.7-0.5,1-0.8
		l0.3,0.4C101.7,99.5,101.3,99.7,101,100z M126.8,99.1c-0.1-0.4-0.1-0.9-0.2-1.3l0.5-0.1c0.1,0.4,0.1,0.9,0.2,1.3L126.8,99.1z
		 M103,98.5l-0.3-0.4c0.3-0.3,0.7-0.5,1-0.8l0.3,0.4C103.8,97.9,103.4,98.2,103,98.5z M105.1,97l-0.3-0.4c0.3-0.3,0.7-0.5,1-0.8
		l0.3,0.4C105.9,96.5,105.5,96.8,105.1,97z M126.5,96.6c-0.1-0.4-0.2-0.9-0.2-1.3l0.5-0.1c0.1,0.4,0.2,0.9,0.2,1.3L126.5,96.6z
		 M107.3,95.5l-0.3-0.4c0.3-0.3,0.7-0.5,1.1-0.8l0.3,0.4C108,95,107.6,95.2,107.3,95.5z M126.1,94c-0.1-0.4-0.2-0.9-0.3-1.3l0.5-0.1
		c0.1,0.4,0.2,0.9,0.3,1.3L126.1,94z M109.4,94l-0.3-0.4c0.3-0.3,0.7-0.5,1.1-0.8l0.3,0.4C110.2,93.5,109.7,93.8,109.4,94z
		 M111.5,92.6l-0.3-0.4c0.3-0.3,0.8-0.5,1.1-0.7l0.3,0.4C112.3,92.1,111.9,92.3,111.5,92.6z M125.5,91.5c-0.1-0.4-0.3-0.9-0.3-1.3
		l0.5-0.2c0.1,0.4,0.3,0.9,0.3,1.3L125.5,91.5z M113.7,91.1l-0.3-0.4c0.3-0.3,0.8-0.5,1.1-0.7l0.3,0.4
		C114.5,90.6,114.1,90.9,113.7,91.1z M115.9,89.8l-0.3-0.4c0.4-0.3,0.8-0.4,1.1-0.7l0.3,0.4C116.6,89.3,116.3,89.5,115.9,89.8z
		 M124.9,89c-0.2-0.4-0.3-0.9-0.5-1.2l0.4-0.3c0.2,0.3,0.3,0.8,0.5,1.2L124.9,89z M118.2,88.4l-0.3-0.4c0.4-0.3,0.8-0.4,1.1-0.6
		l0.3,0.4C118.9,88,118.5,88.3,118.2,88.4z M120.4,87.2l-0.3-0.5c0.4-0.2,0.9-0.3,1.2-0.5l0.2,0.5C121.2,86.9,120.9,87.1,120.4,87.2
		z M123.7,86.9c-0.3-0.3-0.6-0.4-0.9-0.4l0,0V86c0,0,0,0,0.1,0c0.4,0,0.9,0.2,1.3,0.6L123.7,86.9z"/>
</g>
<g>
	<path d="M107.1,50.7c-2.9,2.8-6.5,3.2-9.1,0.6s-2.2-7.1,0.7-9.8c2.9-2.8,10.1-1.5,10.1-1.5S110,47.9,107.1,50.7z"/>
	<g>
		<g>
			<g>
				<g>
					<g>
						<g>
							<path class="st1" d="M98.3,61.9c-1.5-1.4-1.8-4.8-1.3-6.4l3-5.3l3.9,5.6l-1.2,2.4v0.1c0,0-0.1,2.7-1.4,3.8
								c-0.4,0.3-0.9,0.5-1.4,0.4C99.3,62.6,98.8,62.3,98.3,61.9z"/>
							<path d="M100.1,62.9c-0.1,0-0.2,0-0.3,0c-0.6-0.1-1.2-0.3-1.7-0.8l0,0c-1.6-1.5-1.9-4.9-1.4-6.6l0,0l3.2-5.7l4.2,6.1
								l-1.3,2.5l0,0c0,0,0,0.8-0.3,1.6c-0.3,1.1-0.7,2-1.3,2.5C101.1,62.7,100.6,62.9,100.1,62.9z M98.5,61.7
								c0.4,0.3,0.9,0.6,1.4,0.7c0.5,0.1,0.9-0.1,1.3-0.3c1.2-1,1.3-3.7,1.3-3.7v-0.2l1.2-2.3l-3.6-5.2l-2.7,4.9
								C96.9,57.2,97.1,60.4,98.5,61.7L98.5,61.7z"/>
						</g>
					</g>
				</g>
			</g>
		</g>
	</g>
	<g>
		<path class="st1" d="M100.2,54.7c-0.9-0.9-1.6-2.4-1.7-4v-0.3l-0.2-0.1c-0.1,0-0.1-0.1-0.2-0.1c-0.3-0.3-0.5-0.9-0.4-1.4
			c0.1-0.8,0.6-1.4,1.1-1.4c2.6,0.3,4.5-0.9,5.2-3.1c0.6,0.2,1.2,0.5,1.7,0.9c1.3,1.2,1.9,3.2,1.6,5.3c-0.2,1.8-1,3.4-2.3,4.4
			c-0.9,0.7-1.8,0.9-2.8,0.9C101.6,55.6,100.8,55.3,100.2,54.7L100.2,54.7z"/>
		<path d="M105.4,45.6c1.1,1.1,1.7,3,1.5,4.9c-0.2,1.7-0.9,3.2-2.1,4.1c-0.8,0.6-1.6,0.9-2.5,0.8c-0.7-0.1-1.3-0.4-1.9-0.9
			c-0.9-0.9-1.4-2.2-1.5-3.7v-0.5L98.5,50c0,0-0.1,0-0.1-0.1c-0.2-0.2-0.3-0.6-0.3-1.1c0.1-0.7,0.4-1,0.6-1c2.6,0.3,4.7-0.9,5.4-3
			C104.7,45,105.1,45.2,105.4,45.6 M106.1,44.9c-0.7-0.6-1.5-1-2.4-1.1c-0.5,2.4-2.5,3.3-4.8,3.1c-0.8,0-1.4,0.8-1.5,1.8
			c-0.1,0.8,0.2,1.4,0.5,1.9c0.1,0.1,0.2,0.2,0.3,0.2c0.1,1.7,0.8,3.3,1.8,4.3c0.7,0.6,1.4,1,2.4,1.2c2.6,0.3,5.1-2.2,5.5-5.6
			C108,48.3,107.4,46.2,106.1,44.9L106.1,44.9z"/>
	</g>
	<path d="M107.8,50.6c0-0.3,0.1-0.7,0.1-1c-0.8,2-2.2,2.7-3.7,2.5c-3.7-0.6-4.5-5.1-4.5-5.1c-0.1,0-0.4-0.2-0.8,0
		c0,0,0.2,1.4-0.3,2.6c-0.1,0.3-0.3,0.9-0.5,1.2l0,0c0.2,2.8,2.7,6.1,5,6.4C105.8,57.5,107.4,54,107.8,50.6z"/>
	<path class="st1" d="M102.1,52.6c0,0,1.1,0.6,2.1,0.7c1.1,0.1,1.4-0.4,1.4-0.4s-0.5,1.4-1.6,1.4C102.8,54.2,102.1,52.6,102.1,52.6z
		"/>
</g>
<path d="M49.5,128c0,0-1.4-4,3.1-6.5c0.9,2.6,3.5,8.4,5.3,8.3C55.1,131,52.3,130.5,49.5,128z"/>
<polygon points="100.9,59.2 102.4,61.4 101.6,63.2 99.7,63.5 98,62 99.9,59 "/>
<g>
	<path class="st1" d="M98.5,52.5c0,0-0.9,5.5,1.7,6.6l-2.3,4.2c0,0-1.3-2.3-1.7-5.4c-0.3-2.7,0.6-4.7,0.6-4.7L98.5,52.5z"/>
	<path d="M97.9,63.9l-0.3-0.4c-0.1-0.1-1.3-2.4-1.7-5.5c-0.3-2.8,0.5-4.7,0.6-4.8l0.1-0.1l2.2-0.9l-0.1,0.4c0,0-0.3,1.4-0.1,2.9
		c0.1,1.3,0.4,3,1.6,3.5l0.3,0.1L97.9,63.9z M97,53.4c-0.2,0.4-0.9,2.1-0.5,4.4c0.3,2.3,1,4.2,1.4,4.9l1.9-3.5c-2-1.2-1.8-5-1.6-6.4
		L97,53.4z"/>
</g>
<g>
	<path class="st1" d="M100.2,59.2l2.6,3.1l0.6-5.2c0,0-1.1,1.5-1.6,1.9C100.9,59.5,100.2,59.2,100.2,59.2z"/>
	<path d="M103,62.9l-3.8-4.5l1.1,0.6c0,0,0.6,0.3,1.4-0.3c0.3-0.3,1.3-1.4,1.5-1.8l0.6-0.8L103,62.9z M100.8,59.6l1.8,2.1L103,58
		c-0.3,0.4-0.9,0.9-1.1,1.2C101.6,59.4,101.1,59.5,100.8,59.6z"/>
</g>
<polygon class="st3" points="99.7,63.5 90.1,92.8 103.4,82.6 101.6,63.2 "/>
<polygon points="93.3,82.8 102.8,76.2 102.1,69.2 96.8,72.3 "/>
<g>
	<polygon class="st0" points="96.8,53.2 85.8,96 77.1,102.6 90.2,54.6 	"/>
	<path d="M76.6,103.3l13.3-48.9l7.2-1.5l-11,43.2L76.6,103.3z M90.3,54.8l-12.8,47.1l8.2-6.1l10.8-42.3L90.3,54.8z"/>
</g>
<g>
	<path class="st1" d="M130.2,39.9L108.5,44c-7.1,1.2-6.7,9.4,0.4,10.5l21.9,3.2L130.2,39.9z"/>
	<path d="M131,58.2l-22.2-3.3c-4-0.6-5.8-3.2-5.8-5.6c0-1.3,0.4-2.5,1.4-3.4c0.9-1,2.3-1.7,4-2l22.1-4.3L131,58.2z M130,40.2
		l-21.5,4.2c-3.7,0.6-4.9,3-4.8,4.8c0,2.1,1.7,4.6,5.4,5.1l21.6,3.2L130,40.2z"/>
</g>
<g>
	<path class="st1" d="M173.4,27.9l-54.7,10.5C101,41.5,102,62,119.8,64.8l54.8,8.2L173.4,27.9z"/>
	<path d="M175,73.2L119.9,65c-4.3-0.7-8-2.5-10.5-5.1c-2.3-2.4-3.6-5.4-3.6-8.6c0-3,1.1-6,3.2-8.2c2.3-2.6,5.7-4.3,9.8-4.9l55-10.6
		L175,73.2z M173.2,28.2l-54.4,10.5c-4,0.7-7.3,2.3-9.5,4.8c-2,2.2-3.1,4.9-3.1,7.8c0,3,1.3,6,3.5,8.2c2.5,2.6,6,4.3,10.2,4.9
		l54.5,8.1L173.2,28.2z"/>
</g>
<g>
	<polygon class="st1" points="227.2,25.4 174.4,36 175.5,62.4 229.5,70.6 	"/>
	<path d="M229.8,70.9l-0.3-0.1l-54.2-8.2L174,35.8l53.4-10.7L229.8,70.9z M175.7,62.2l53.5,8.1l-2.4-44.6l-52.3,10.5L175.7,62.2z"/>
</g>
<g>
	<g>
		<path class="st1" d="M190.9,37.8l19.7-0.9l0.5,11.5c-0.5-0.9-1.4-1.6-2.6-2.1c-1.7-0.7-3.9-1.1-6.4-1.1c-4.3,0-8.2,1.2-9.9,3
			c-0.3,0.3-0.6,0.8-0.8,1.1L190.9,37.8z"/>
		<g>
			<path d="M210.4,37.2l0.4,10.7c-0.5-0.7-1.4-1.3-2.4-1.7c-1.7-0.8-4-1.1-6.5-1.1c-2,0-4,0.3-5.8,0.8c-1.9,0.5-3.4,1.4-4.3,2.3
				c-0.2,0.2-0.3,0.4-0.5,0.6L191,38L210.4,37.2 M210.7,36.7l-20.1,0.9l0.6,13.1c-0.2-3.5,5.4-5.4,10.8-5.4c4.7,0,9.1,1.4,9.3,4.5
				L210.7,36.7L210.7,36.7z"/>
		</g>
	</g>
	<g>
		<path class="st1" d="M191.7,57.1c-1.6,0-3.1-0.9-4.3-2.7s-2-4.2-2-6.7c-0.1-2.6,0.4-5.1,1.5-7s2.6-2.9,4.2-3c0.1,0,0.1,0,0.2,0
			c1.6,0,3.1,0.9,4.3,2.7s2,4.2,2,6.7c0.1,2.6-0.4,5.1-1.5,7s-2.6,2.9-4.2,3C191.8,57.1,191.8,57.1,191.7,57.1z"/>
		<g>
			<path d="M191.2,37.6v0.3l0,0c1.5,0,3.1,0.9,4.2,2.6c1.2,1.8,2,4.1,2,6.6c0.1,2.6-0.4,5-1.5,6.9c-1,1.8-2.5,2.8-4.1,2.9
				c-0.1,0-0.1,0-0.2,0c-1.5,0-3.1-0.9-4.2-2.6c-1.2-1.8-2-4.1-2-6.6c-0.1-2.6,0.4-5,1.5-6.9c1-1.8,2.5-2.8,4.1-2.9
				c0.1,0,0.1,0,0.2,0V37.6 M191.2,37.6c-0.1,0-0.1,0-0.2,0c-3.5,0.2-6.1,4.7-5.9,10.1c0.3,5.4,3.1,9.6,6.5,9.6c0.1,0,0.1,0,0.2,0
				c3.5-0.2,6.1-4.7,5.9-10.1C197.6,41.8,194.6,37.6,191.2,37.6L191.2,37.6z"/>
		</g>
	</g>
	<g>
		<path class="st1" d="M211.4,56.3c-1.6,0-3.1-0.9-4.3-2.7s-2-4.2-2-6.7c-0.3-5.4,2.4-9.8,5.7-9.9c0.1,0,0.1,0,0.2,0
			c1.6,0,3.1,0.9,4.3,2.7s2,4.2,2,6.7c0.3,5.4-2.4,9.8-5.7,9.9C211.6,56.3,211.5,56.3,211.4,56.3z"/>
		<g>
			<path d="M210.9,36.7V37l0,0c1.5,0,3.1,0.9,4.2,2.6c1.2,1.8,2,4.1,2,6.6c0.1,2.6-0.4,5-1.5,6.9c-1,1.8-2.5,2.8-4.1,2.9
				c-0.1,0-0.1,0-0.2,0c-1.5,0-3.1-0.9-4.2-2.6c-1.2-1.8-2-4.1-2-6.6s0.4-5,1.5-6.9c1-1.8,2.5-2.8,4.1-2.9c0.1,0,0.1,0,0.2,0V36.7
				 M210.9,36.7c-0.1,0-0.1,0-0.2,0c-3.5,0.2-6.1,4.7-5.9,10.1c0.3,5.4,3.1,9.6,6.5,9.6c0.1,0,0.1,0,0.2,0c3.5-0.2,6.1-4.7,5.9-10.1
				C217.3,41,214.4,36.7,210.9,36.7L210.9,36.7z"/>
		</g>
	</g>
</g>
<g>
	<path class="st1" d="M228.3,70.6c-0.1,0-0.2,0-0.3,0c-5.5-0.1-10.7-2.5-14.6-6.7c-3.9-4.3-6-9.9-6-16c0-6,2.2-11.6,6-15.8
		c3.9-4.2,9-6.5,14.5-6.5c0.1,0,0.2,0,0.3,0c5.5,0.1,10.7,2.5,14.6,6.7c3.9,4.3,6,9.9,6,16c0,6-2.2,11.6-6,15.8
		C238.9,68.3,233.7,70.6,228.3,70.6z"/>
	<path d="M227.9,25.9L227.9,25.9c0.1,0,0.2,0,0.3,0c2.7,0,5.4,0.7,7.9,1.8c2.5,1.1,4.6,2.8,6.5,4.8s3.3,4.4,4.3,7.1s1.6,5.7,1.6,8.7
		s-0.6,5.9-1.6,8.6c-1,2.6-2.5,4.9-4.3,7c-1.9,2-4,3.6-6.5,4.7s-5.1,1.7-7.8,1.7c-0.1,0-0.2,0-0.3,0c-2.7,0-5.4-0.7-7.9-1.8
		s-4.6-2.8-6.5-4.8c-1.9-2-3.3-4.4-4.3-7.1c-1-2.7-1.6-5.7-1.6-8.7s0.6-5.9,1.6-8.6c1-2.6,2.5-4.9,4.3-7c1.9-2,4-3.6,6.5-4.7
		C222.6,26.4,225.2,25.9,227.9,25.9 M227.9,25.2c-11.6,0-20.9,10-20.9,22.6c-0.1,12.6,9.4,23,21,23c0.1,0,0.2,0,0.3,0
		c11.6,0,20.9-10,20.9-22.6c0.1-12.6-9.4-23-21-23C228.1,25.2,228,25.2,227.9,25.2L227.9,25.2z"/>
</g>
<ellipse transform="matrix(0.9991 -4.294186e-02 4.294186e-02 0.9991 -1.8551 9.8396)" class="st4" cx="228.1" cy="48.1" rx="17.1" ry="18.5"/>
<path class="st1" d="M227.7,32.8c-6.9-0.1-12.8,4.9-14.5,11.7c2.4-5.6,7.7-9.5,13.7-9.4c8.3,0.1,15,7.5,15,16.5c0,1.5-0.2,3-0.6,4.3
	c0.9-2,1.4-4.3,1.4-6.7C242.7,40.3,236,33,227.7,32.8z"/>
<g>
	<path class="st1" d="M174.4,72.9c-0.1,0-0.2,0-0.3,0c-5.5-0.1-10.7-2.5-14.6-6.7c-3.9-4.3-6-9.9-6-16c0-6,2.2-11.6,6-15.8
		c3.9-4.2,9-6.5,14.5-6.5c0.1,0,0.2,0,0.3,0c5.5,0.1,10.7,2.5,14.6,6.7c3.9,4.3,6,9.9,6,16c0,6-2.2,11.6-6,15.8
		C185.1,70.6,180,72.9,174.4,72.9z"/>
	<path d="M174.1,28.2L174.1,28.2c0.1,0,0.2,0,0.3,0c2.7,0,5.4,0.7,7.9,1.8s4.6,2.8,6.5,4.8s3.3,4.4,4.3,7.1c1,2.7,1.6,5.7,1.6,8.7
		s-0.6,5.9-1.6,8.6c-1,2.6-2.5,4.9-4.3,7c-1.9,2-4,3.6-6.5,4.7s-5.1,1.7-7.8,1.7c-0.1,0-0.2,0-0.3,0c-2.7,0-5.4-0.7-7.9-1.8
		c-2.5-1.1-4.6-2.8-6.5-4.8s-3.3-4.4-4.3-7.1c-1-2.7-1.6-5.7-1.6-8.7s0.6-5.9,1.6-8.6c1-2.6,2.5-4.9,4.3-7c1.9-2,4-3.6,6.5-4.7
		C168.7,28.8,171.4,28.2,174.1,28.2 M174.1,27.5c-11.6,0-20.9,10-20.9,22.6c-0.1,12.6,9.4,23,21,23c0.1,0,0.2,0,0.3,0
		c11.6,0,20.9-10,20.9-22.6c0.1-12.6-9.4-23-21-23C174.3,27.5,174.2,27.5,174.1,27.5L174.1,27.5z"/>
</g>
<ellipse transform="matrix(0.9991 -4.294255e-02 4.294255e-02 0.9991 -2.0035 7.5315)" class="st4" cx="174.3" cy="50.4" rx="17.1" ry="18.5"/>
<path class="st1" d="M174,35c-6.9-0.1-12.8,4.9-14.5,11.7c2.4-5.6,7.7-9.5,13.7-9.4c8.3,0.1,15,7.5,15,16.5c0,1.5-0.2,3-0.6,4.3
	c0.9-2,1.4-4.3,1.4-6.7C189,42.5,182.3,35.1,174,35z"/>
<g>
	<path class="st1" d="M187.2,67.8c0,0,1.6,1.9,5.6,3c4.1,1.1,7.7-4.8,7.7-4.8c-2.4-0.3-7.1-1.2-8.2-4.8
		C190.7,64.8,187.2,67.8,187.2,67.8z"/>
	<path d="M193.8,71.2c-0.3,0-0.8-0.1-1.1-0.2c-4.1-1.1-5.7-3-5.8-3.1l-0.2-0.2l0.2-0.2c0,0,3.6-3.1,5.2-6.5l0.3-0.7l0.2,0.7
		c0.4,1.5,1.5,2.7,3.4,3.6c1.6,0.7,3.3,1,4.5,1.1h0.4l-0.3,0.3c0,0.1-0.9,1.5-2.4,2.8C196.8,70.4,195.3,71.2,193.8,71.2z
		 M187.5,67.8c0.5,0.5,2.1,1.9,5.4,2.6c3.2,0.9,6.4-3.1,7.2-4.3c-1.2-0.2-2.8-0.4-4.3-1.1c-1.8-0.8-2.9-1.9-3.5-3.3
		C190.8,64.8,188.3,67.2,187.5,67.8z"/>
</g>
<path d="M94.1,80.5c0,0-0.7,11.2,7.5,12.1s8.8-19.9,8.8-19.9L94.1,80.5z"/>
<g>
	<path class="st0" d="M24.7,79.4c0,0,7.3-14.5,41.2-21.1C79.8,55.6,82,56.5,82,56.5C59.6,75.5,51.7,79.2,24.7,79.4z"/>
	<path d="M24.3,79.7l0.2-0.3c0.1-0.2,2-3.7,8-8.2c3.6-2.6,7.8-4.9,12.7-7c6-2.6,13-4.6,20.7-6.1c13.8-2.7,16.2-1.8,16.2-1.8l0.4,0.2
		l-0.3,0.3c-11.1,9.4-18.8,15.1-27,18.5c-4.1,1.6-8.2,2.7-13.3,3.4c-4.6,0.6-9.9,0.9-17.3,1L24.3,79.7z M80.2,56.5
		c-2,0-6,0.3-14.3,2c-7.7,1.5-14.6,3.6-20.7,6.1c-4.8,2-9,4.3-12.5,6.9c-4.8,3.6-7,6.5-7.7,7.7c7.1-0.1,12.2-0.3,16.7-1
		c4.9-0.7,9.1-1.8,13.1-3.4c8.1-3.3,15.6-8.9,26.4-18.1C81.2,56.5,80.7,56.5,80.2,56.5z"/>
</g>
<g>
	<path class="st1" d="M118.8,75c-8.9,2-27.9,7.7-27.9,7.7l-2.8-21l23.6-4.3c0,0,4.9-16,8.2-21c3.2-4.9,17.3-6.8,17.3-6.8
		s19.5,1.6,7.5,3.8c-6.9,1.3-9.1,18.3-10.4,23C133.3,60.4,128.3,72.8,118.8,75z"/>
	<path d="M90.9,83c-0.1,0-0.1,0-0.2,0s-0.1-0.1-0.1-0.2l-2.8-21c0-0.2,0.1-0.3,0.2-0.3l23.4-4.3c0.5-1.7,5.1-16.2,8.2-20.9
		c1.4-2.1,4.8-3.9,10-5.4c3.9-1.1,7.5-1.5,7.6-1.5c0,0,0,0,0.1,0c0,0,2.9,0.3,5.7,0.7c5.2,0.8,5.9,1.4,6,2c0,0.5-0.4,1-4.2,1.7
		c-2.4,0.4-4.4,2.9-6.2,7.4c-1.5,3.9-2.5,8.5-3.2,11.8c-0.3,1.4-0.6,2.7-0.9,3.6c-0.7,2.4-2.3,6.4-4.7,10c-1.4,2.2-3,4-4.7,5.4
		c-2,1.7-4.2,2.8-6.4,3.3l-0.1-0.3l0.1,0.3C110.1,77.3,91.2,82.9,90.9,83C91,83,91,83,90.9,83z M88.5,61.9l2.7,20.5
		c2.5-0.7,19.4-5.7,27.5-7.7c2.1-0.5,4.2-1.5,6.1-3.2c1.6-1.4,3.1-3.1,4.6-5.3c2.4-3.6,4-7.6,4.6-9.9c0.3-0.9,0.5-2.1,0.9-3.6
		c1.4-7,4-18.6,9.8-19.6c3.7-0.7,3.7-1.2,3.7-1.2s-0.1-0.7-5.5-1.4c-2.6-0.4-5.4-0.6-5.6-0.7c-0.7,0.1-14.1,2-17.2,6.6
		c-3.1,4.8-8.1,20.7-8.2,20.9c0,0.1-0.1,0.2-0.2,0.2L88.5,61.9z"/>
</g>
<g>
	<path class="st0" d="M33.1,92.2c19.3,3.3,46.5,3.1,68.7,0.2c-6.5,0.4-12.7-30,0.9-33.6c-22,2.2-46.6,4.2-62.5,9.4
		C24.6,73.3,14.6,89.1,33.1,92.2z"/>
	<path d="M66.8,95c-12.2,0-24-0.9-33.7-2.5c-3.3-0.6-5.9-1.5-7.6-2.9c-1.6-1.3-2.6-2.9-2.6-4.8c-0.3-2.9,1.4-6.3,4.8-9.5
		c3.2-3.1,7.7-5.8,12.5-7.4c14.4-4.7,35.7-6.7,56.3-8.8c2.1-0.2,4.3-0.4,6.4-0.6L103,59c-1.8,0.4-3.2,1.4-4.4,2.8
		c-1.1,1.3-2,3-2.6,5c-1,3.7-1.2,8.2-0.4,13c0.5,3.4,1.4,6.5,2.6,8.8s2.6,3.5,3.7,3.4l0.1,0.5C90.7,94.2,78.5,95,66.8,95z M33.2,92
		c9.6,1.6,21.3,2.5,33.6,2.5c11.2,0,22.9-0.7,33.7-2c-1-0.5-2-1.7-2.9-3.4c-1.2-2.3-2.2-5.4-2.7-8.9c-0.8-4.8-0.6-9.5,0.4-13.2
		c0.6-2.1,1.4-3.9,2.6-5.3c0.9-1,1.8-1.8,2.9-2.3c-1.4,0.2-3,0.3-4.4,0.4c-20.6,2-41.7,4-56.1,8.7c-4.7,1.5-9.1,4.1-12.2,7.2
		c-1.5,1.5-2.7,3.1-3.5,4.6c-0.9,1.6-1.2,3.1-1.1,4.5c0.1,1.7,0.9,3.1,2.5,4.3C27.5,90.5,30,91.4,33.2,92z"/>
</g>
<g>
	<path d="M136.2,33.1c-0.1,0-0.1,0-0.2-0.1s-0.2-0.3-0.1-0.3c2-2.8,5.5-2.9,5.7-2.9l0,0c0.2,0,0.3,0.1,0.3,0.3s-0.1,0.3-0.3,0.3
		C141.5,30.4,138.1,30.5,136.2,33.1C136.3,33,136.3,33.1,136.2,33.1z"/>
</g>
<g>
	<path d="M131,32.8c-0.1,0-0.1,0-0.2-0.1c-0.1-0.1-0.2-0.3-0.1-0.3c0.9-1.2,2.2-2,4-2.6c1.4-0.4,2.5-0.5,2.5-0.5
		c0.2,0,0.3,0.1,0.3,0.3s-0.1,0.3-0.3,0.3c0,0-4.3,0.3-6,2.9C131.2,32.8,131.1,32.8,131,32.8z"/>
</g>
<g>
	<path d="M125.1,33.6c-0.1,0-0.2,0-0.3-0.1c-0.1-0.1-0.1-0.3,0.1-0.3c2-1.4,3.9-2,4-2c0.2-0.1,0.3,0,0.3,0.2c0.1,0.2,0,0.3-0.2,0.3
		c0,0-1.9,0.6-3.8,2C125.2,33.5,125.1,33.6,125.1,33.6z"/>
</g>
<g>
	<g>
		<circle class="st1" cx="88.2" cy="87.9" r="3.3"/>
		<path d="M88.2,91.5c-2,0-3.6-1.6-3.6-3.6s1.6-3.6,3.6-3.6s3.6,1.6,3.6,3.6S90.2,91.5,88.2,91.5z M88.2,84.9
			c-1.7,0-3.1,1.4-3.1,3.1s1.4,3.1,3.1,3.1s3.1-1.4,3.1-3.1S89.8,84.9,88.2,84.9z"/>
	</g>
	<g>
		<circle cx="88.2" cy="87.1" r="0.7"/>
		<circle cx="88.2" cy="88.9" r="0.7"/>
	</g>
</g>
<g>
	<path class="st1" d="M184.4,30.7c0-0.9,2.6-3.1,6.3-1.8c2.3-2.2,5.4-2,6.4-0.8c1.8-1.2,6.2-1.1,5.1,1.3c-2.4,5.4-3.6,8.1-6.7,7.9
		c-3.1-0.2,0.1-6.5,0.1-6.5c-2.2,2-3.7,4.3-4.3,6.6C188.8,34.3,187.1,32.4,184.4,30.7z"/>
	<path d="M191.2,37.8c-0.1,0-0.2,0-0.2-0.1c-2.3-3.1-4-5.1-6.8-6.8c-0.1-0.1-0.1-0.2-0.1-0.3c0-0.4,0.3-1,1-1.4
		c0.5-0.4,2.5-1.5,5.4-0.6c1.3-1.2,2.9-1.8,4.3-1.7c0.9,0.1,1.6,0.4,2.1,0.9c1.4-0.8,4-0.9,5-0.1c0.3,0.3,0.7,0.9,0.3,1.8l-0.2,0.4
		c-1.2,2.6-2,4.5-3,5.8c-1,1.4-2.2,2-3.7,1.9c-0.6,0-1.1-0.3-1.4-0.8c-0.4-0.8-0.3-2,0.3-3.7c0.1-0.3,0.3-0.7,0.4-1
		c-1.6,1.7-2.7,3.6-3.2,5.5C191.4,37.7,191.4,37.8,191.2,37.8C191.3,37.8,191.3,37.8,191.2,37.8z M195.6,30.7c0.1,0,0.1,0,0.2,0.1
		s0.2,0.3,0.1,0.3c-0.6,1.1-2,4.3-1.3,5.6c0.2,0.3,0.5,0.5,0.9,0.5c2.9,0.2,4-2.4,6.3-7.3l0.2-0.4c0.3-0.5,0.2-0.9-0.2-1.2
		c-0.9-0.8-3.3-0.6-4.6,0.3c-0.1,0.1-0.3,0.1-0.3-0.1c-0.3-0.5-1-0.8-1.9-0.9c-1.4-0.1-2.9,0.5-4.1,1.6c-0.1,0.1-0.2,0.1-0.3,0.1
		c-2.8-0.9-4.6,0.1-5.1,0.5c-0.4,0.3-0.7,0.7-0.8,0.9c2.6,1.7,4.3,3.6,6.5,6.5c0.8-2.2,2.2-4.3,4.3-6.3
		C195.4,30.8,195.5,30.7,195.6,30.7z"/>
</g>
<g>
	<path class="st1" d="M187.7,33.3c0,0,1.1-2.5,2.7-3.3"/>
	<path d="M187.7,33.6L187.7,33.6c-0.3-0.1-0.3-0.2-0.3-0.3c0.1-0.1,1.1-2.6,2.8-3.5c0.1-0.1,0.3,0,0.3,0.1s0,0.3-0.1,0.3
		c-1.5,0.9-2.6,3.1-2.6,3.2C187.9,33.6,187.8,33.6,187.7,33.6z"/>
</g>
<g>
	<g>
		<circle class="st1" cx="184" cy="81.6" r="2.5"/>
		<path d="M184,84.4c-0.4,0-0.8-0.1-1.1-0.3c-0.7-0.3-1.2-0.9-1.4-1.5s-0.3-1.4,0.1-2.1c0.3-0.7,0.9-1.2,1.5-1.4
			c0.7-0.3,1.4-0.3,2.1,0.1c1.4,0.6,2,2.3,1.4,3.7c-0.3,0.7-0.9,1.2-1.5,1.4C184.7,84.3,184.4,84.4,184,84.4z M184,79.4
			c-0.3,0-0.5,0.1-0.8,0.2c-0.6,0.2-1,0.6-1.3,1.2c-0.3,0.5-0.3,1.2-0.1,1.7c0.2,0.6,0.6,1,1.2,1.3c0.5,0.3,1.2,0.3,1.7,0.1
			c0.6-0.2,1-0.6,1.3-1.2l0,0c0.5-1.1,0-2.5-1.1-3C184.7,79.5,184.4,79.4,184,79.4z"/>
	</g>
	<g>
		<path d="M184.8,81.3c-0.1,0.3-0.4,0.3-0.7,0.3c-0.3-0.1-0.3-0.4-0.3-0.7c0.1-0.3,0.4-0.3,0.7-0.3C184.8,80.8,184.9,81,184.8,81.3z
			"/>
		<path d="M184.2,82.6c-0.1,0.3-0.4,0.3-0.7,0.3c-0.3-0.1-0.3-0.4-0.3-0.7c0.1-0.3,0.4-0.3,0.7-0.3C184.2,82,184.3,82.4,184.2,82.6z
			"/>
	</g>
</g>
<rect x="5.7" y="6.2" class="st5" width="260.5" height="227.5"/>
</svg>
